<svg width="42" height="42" viewBox="0 0 42 42" fill="none" xmlns="http://www.w3.org/2000/svg">
<path d="M39.3616 0.351074H2.76711C1.51407 0.351828 0.498284 1.36918 0.498535 2.62402V39.2566C0.499288 40.5109 1.51558 41.5278 2.76912 41.5275H22.4713V25.6038H17.1287V19.3711H22.4713V14.7842C22.4713 9.46499 25.7152 6.56977 30.4552 6.56977C32.7256 6.56977 34.6765 6.73916 35.2452 6.8148V12.3743H31.9766C29.3978 12.3743 28.8984 13.601 28.8984 15.4014V19.3711H35.0644L34.261 25.6038H28.8984V41.5275H39.3616C40.6154 41.5278 41.6319 40.5107 41.6322 39.2556C41.6322 39.2553 41.6322 39.2551 41.6322 39.2546V2.62201C41.6317 1.36767 40.6151 0.350823 39.3616 0.351074Z" fill="white"/>
</svg>
