<svg width="42" height="40" viewBox="0 0 42 40" fill="none" xmlns="http://www.w3.org/2000/svg">
<path d="M4.9883 0C1.97207 0 0 1.98267 0 4.58862C0 7.13702 1.91333 9.17624 4.87257 9.17624H4.92981C8.00504 9.17624 9.91886 7.13702 9.91886 4.58862C9.86137 1.98267 8.00504 0 4.9883 0V0Z" fill="white"/>
<path d="M0.521179 12.8022H9.3389V39.3584H0.521179V12.8022Z" fill="white"/>
<path d="M30.9822 12.179C26.2254 12.179 23.0357 16.6535 23.0357 16.6535V12.8022H14.2178V39.3584H23.0352V24.5284C23.0352 23.7345 23.0927 22.9418 23.3257 22.3741C23.9631 20.7887 25.4137 19.1463 27.8498 19.1463C31.0405 19.1463 32.3166 21.5816 32.3166 25.1517V39.3584H41.1336V24.1315C41.1336 15.9747 36.7832 12.179 30.9822 12.179V12.179Z" fill="white"/>
</svg>
