<svg width="170" height="72" viewBox="0 0 170 72" fill="none" xmlns="http://www.w3.org/2000/svg">
<path d="M10.584 0.767944H6.75L0 38.9999H21.708L22.248 35.5979H4.374L10.584 0.767944Z" fill="white"/>
<path d="M43.3181 39.6479C52.1201 39.6479 58.3301 32.6279 58.3301 23.9879C58.3301 17.5079 53.5241 13.0799 46.6661 13.0799C37.9181 13.0799 31.6541 20.2079 31.6541 28.6859C31.6541 35.1659 36.5141 39.6479 43.3181 39.6479ZM54.5501 24.2039C54.5501 30.8999 49.9601 36.5699 43.5341 36.5699C38.5121 36.5699 35.4881 33.1139 35.4881 28.4699C35.4881 21.8279 40.1321 16.1039 46.4501 16.1039C51.5261 16.1039 54.5501 19.6139 54.5501 24.2039Z" fill="white"/>
<path d="M72.7861 19.2899L69.3301 38.9999H72.9481L75.2161 26.0399C76.4041 19.2899 80.1301 16.4819 84.0181 16.4819C84.9901 16.4819 86.1241 16.6439 86.5021 16.8059L87.3661 13.3499C86.6101 13.1339 85.9081 13.0799 84.9901 13.0799C81.4261 13.0799 78.4021 15.1319 76.5661 18.0479H76.4581C76.6741 16.9679 76.8901 15.0779 77.0521 13.7279H73.5961C73.4341 15.4559 73.0561 17.9399 72.7861 19.2899Z" fill="white"/>
<path d="M117.441 27.3359C117.819 25.8779 117.927 23.8259 117.927 22.9619C117.927 17.1299 114.255 13.0799 107.397 13.0799C99.1887 13.0799 92.7627 20.3159 92.7627 28.5239C92.7627 35.5979 97.7847 39.6479 104.265 39.6479C108.639 39.6479 112.689 37.8119 115.605 34.3019L113.337 32.1419C111.555 34.5179 108.531 36.5699 104.589 36.5699C99.9987 36.5699 96.4347 33.2219 96.4347 28.5239C96.4347 28.1459 96.4887 27.7679 96.5427 27.3359H117.441ZM97.0287 24.6359C98.1087 20.0459 101.943 16.1039 107.289 16.1039C111.879 16.1039 114.309 18.8579 114.309 22.7459C114.309 23.2859 114.255 24.0959 114.201 24.6359H97.0287Z" fill="white"/>
<path d="M160.825 13.0799C156.991 13.0799 153.859 15.0239 151.915 18.4259C151.051 14.1059 147.595 13.0799 144.841 13.0799C141.223 13.0799 138.145 14.9699 136.093 18.0479H135.985C136.201 16.9679 136.417 15.0779 136.579 13.7279H133.123C132.961 15.4559 132.583 17.9399 132.313 19.2899L128.857 38.9999H132.475L134.743 26.0399C135.931 19.2899 140.197 16.1039 143.707 16.1039C147.433 16.1039 148.729 17.9939 148.729 21.0179C148.729 21.9899 148.621 23.1239 148.405 24.3119L145.759 38.9999H149.377L151.753 25.5539C152.563 20.8559 154.723 16.1039 160.069 16.1039C164.227 16.1039 165.685 18.3179 165.685 21.8279C165.685 22.7999 165.577 23.8799 165.361 25.0139L162.877 38.9999H166.495L169.249 23.5019C169.411 22.5299 169.519 21.6659 169.519 20.8019C169.519 16.0499 166.279 13.0799 160.825 13.0799Z" fill="white"/>
<path d="M65.364 38.9279H62.95L58.7 62.9999H61.114L65.364 38.9279Z" fill="white"/>
<path d="M75.59 49.6719H75.522L75.998 47.0879H73.72L69.436 71.16H71.714L73.652 60.3139H73.72C74.74 62.3199 76.984 63.4079 79.262 63.4079C84.634 63.4079 88.612 58.9879 88.612 53.5479C88.612 49.4679 85.756 46.6799 81.438 46.6799C78.888 46.6799 76.61 48.0739 75.59 49.6719ZM86.232 53.6839C86.232 58.0019 83.478 61.4699 79.296 61.4699C76.168 61.4699 74.162 59.3279 74.162 56.3359C74.162 52.1199 77.256 48.5839 81.234 48.5839C84.464 48.5839 86.232 50.8279 86.232 53.6839Z" fill="white"/>
<path d="M108.16 49.2979C107.31 47.7339 105.236 46.6799 102.788 46.6799C99.9316 46.6799 96.6676 48.0739 96.6676 51.3379C96.6676 53.9899 98.7756 54.9419 100.68 55.5539C103.196 56.3699 104.556 57.0499 104.556 58.7499C104.556 60.6879 102.55 61.4699 100.578 61.4699C98.5716 61.4699 96.9056 60.3819 96.1576 59.0899L94.1856 60.3819C95.5116 62.4219 98.0276 63.4079 100.68 63.4079C103.468 63.4079 106.834 61.9799 106.834 58.5119C106.834 55.9959 105.134 54.7379 102.04 53.8539C100.068 53.2759 98.8776 52.8679 98.8776 51.1679C98.8776 49.2639 101.02 48.5839 102.652 48.5839C104.42 48.5839 105.746 49.3999 106.358 50.5899L108.16 49.2979Z" fill="white"/>
<path d="M127.415 62.9999C127.517 61.9119 127.755 60.3479 127.925 59.4979L130.101 47.0879H127.823L126.395 55.2479C125.647 59.4979 122.995 61.4699 120.547 61.4699C117.929 61.4699 117.011 60.1099 117.011 57.8999C117.011 57.2879 117.079 56.6079 117.215 55.8939L118.779 47.0879H116.501L114.767 56.8459C114.665 57.4579 114.597 58.0019 114.597 58.5459C114.597 61.5379 116.637 63.4079 120.071 63.4079C122.213 63.4079 124.287 62.2179 125.511 60.2799H125.579C125.443 60.9599 125.307 62.1499 125.205 62.9999H127.415Z" fill="white"/>
<path d="M157.204 46.6799C154.79 46.6799 152.818 47.9039 151.594 50.0459C151.05 47.3259 148.874 46.6799 147.14 46.6799C144.862 46.6799 142.924 47.8699 141.632 49.8079H141.564C141.7 49.1279 141.836 47.9379 141.938 47.0879H139.762C139.66 48.1759 139.422 49.7399 139.252 50.5899L137.076 62.9999H139.354L140.782 54.8399C141.53 50.5899 144.216 48.5839 146.426 48.5839C148.772 48.5839 149.588 49.7739 149.588 51.6779C149.588 52.2899 149.52 53.0039 149.384 53.7519L147.718 62.9999H149.996L151.492 54.5339C152.002 51.5759 153.362 48.5839 156.728 48.5839C159.346 48.5839 160.264 49.9779 160.264 52.1879C160.264 52.7999 160.196 53.4799 160.06 54.1939L158.496 62.9999H160.774L162.508 53.2419C162.61 52.6299 162.678 52.0859 162.678 51.5419C162.678 48.5499 160.638 46.6799 157.204 46.6799Z" fill="white"/>
</svg>
