<svg width="42" height="29" viewBox="0 0 42 29" fill="none" xmlns="http://www.w3.org/2000/svg">
<path d="M40.5792 4.66893C40.1052 2.90491 38.7159 1.51435 36.9539 1.03935C33.7351 0.157715 20.8595 0.157715 20.8595 0.157715C20.8595 0.157715 7.98442 0.157715 4.76559 1.00592C3.03754 1.48042 1.61429 2.90516 1.14029 4.66893C0.293213 7.89087 0.293213 14.5727 0.293213 14.5727C0.293213 14.5727 0.293213 21.2883 1.14029 24.4766C1.61479 26.2403 3.00365 27.6309 4.76584 28.1059C8.01831 28.9878 20.86 28.9878 20.86 28.9878C20.86 28.9878 33.7351 28.9878 36.9539 28.1396C38.7161 27.6648 40.1052 26.2743 40.5797 24.5105C41.4266 21.2883 41.4266 14.6067 41.4266 14.6067C41.4266 14.6067 41.4604 7.89087 40.5792 4.66893ZM16.7602 20.7457V8.3998L27.4669 14.5727L16.7602 20.7457Z" fill="white"/>
</svg>
